<svg width="923" height="923" viewBox="0 0 923 923" fill="none" xmlns="http://www.w3.org/2000/svg">
<path d="M658.812 859.946C662.952 857.893 667.06 855.783 671.126 853.605L657.43 842.108L658.812 859.946ZM655.629 813.455L675.192 851.405C684.241 846.438 693.104 841.173 701.756 835.605L677.711 800.352C670.503 804.96 663.13 809.314 655.629 813.455ZM632.192 849.162L618.527 837.098L633.682 871.468C638.397 869.485 643.062 867.41 647.692 865.272L632.499 830.935L632.192 849.162ZM633.997 824.555L651.183 863.642C652.371 863.08 653.567 862.535 654.75 861.963L635.141 824.022C634.761 824.203 634.377 824.374 633.997 824.555ZM232.617 799.472L218.358 808.327L214.533 824.962L232.617 799.472ZM707.421 796.962L705.686 780.705C702.737 782.966 699.76 785.187 696.752 787.364L720.766 822.652C722.307 821.545 723.842 820.424 725.367 819.297L722.803 803.792L707.421 796.962ZM200.925 815.368L215.421 806.18L219.098 789.754L200.925 815.368ZM629.65 826.582C625.789 828.361 621.904 830.104 617.976 831.765C617.724 831.872 617.469 831.97 617.216 832.076L629.303 842.988L629.65 826.582ZM705.545 833.112C709.404 830.574 713.227 827.984 717 825.331L702.01 815.577L705.545 833.112ZM697.111 808.378L693.239 789.901C689.32 792.673 685.34 795.356 681.325 797.985L697.111 808.378ZM223.679 785.286L219.445 803.697L235.42 793.621C231.458 790.914 227.543 788.136 223.679 785.286ZM701.591 829.804L698.035 813.016L683.924 803.845L701.591 829.804ZM272.804 827.726L277.636 818.791C273.117 816.461 268.652 814.043 264.234 811.547L272.804 827.726ZM504.062 861.095L518.582 866.402L519.078 870.883L498.928 863.469L503.409 904.041C514.331 903.022 525.137 901.606 535.816 899.811L528.563 857.762C520.447 859.122 512.28 860.238 504.062 861.095ZM483.146 884.388L474.694 868.243L476.571 905.733C481.692 905.564 486.791 905.306 491.866 904.966L489.942 867.48L483.146 884.388ZM482.65 877.592L488.836 862.387C484.32 862.686 479.791 862.91 475.249 863.06L482.65 877.592ZM546.311 868.779L545.134 863.793L551.674 853.213C545.271 854.679 538.83 855.982 532.354 857.131L539.607 899.185C547.222 897.838 554.77 896.303 562.245 894.572L553.436 857.253L546.311 868.779ZM493.617 862.051L495.709 904.721C497.004 904.625 498.289 904.491 499.582 904.381L494.895 861.942C494.466 861.976 494.042 862.019 493.617 862.051ZM599.825 868.742L590.029 842.376C579.133 846.054 568.1 849.225 556.957 851.937L567.572 858.496L568.749 863.482L557.162 856.321L565.976 893.66C585.493 888.964 604.51 882.993 622.928 875.816L614.582 853.237L599.825 868.742ZM655.289 856.18L653.795 839.081L640.897 828.262L655.289 856.18ZM653.439 834.366L651.835 815.536C647.608 817.81 643.328 819.996 639.012 822.12L653.439 834.366ZM655.746 820.725L657.051 837.461L670.067 848.506L655.746 820.725ZM593.701 841.088L601.193 861.354L601.223 861.288L615.976 845.782L626.504 874.4C627.714 873.916 628.916 873.418 630.121 872.922L612.847 833.859C606.513 836.436 600.13 838.845 593.701 841.088ZM807.108 717.374L784.064 701.281C781.005 705.387 777.844 709.422 774.623 713.415L784.609 711.397L803.315 717.754L816.922 728.57C821.479 722.514 825.895 716.347 830.144 710.056L810.416 696.229L807.108 717.374ZM851.44 675.128C853.134 672.043 854.791 668.934 856.412 665.804L845.31 665.874L851.44 675.128ZM816.129 681.153L802.955 680.575L822.643 692.672L816.129 681.153ZM820.125 652.447L825.881 662.02L837.986 661.97L831.281 651.892L820.125 652.447ZM819.98 681.052L827.559 695.629L836.133 700.943C839.122 696.277 842.001 691.535 844.818 686.751L836.25 681.486L819.98 681.052ZM823.759 665.998L815.505 651.889C813.745 655.163 811.947 658.412 810.098 661.631L846.459 683.973C847.415 682.322 848.348 680.652 849.283 678.987L840.588 665.91L823.759 665.998ZM90.3402 615.09L79.3396 627.129L95.7359 627.574C94.2941 624.397 92.885 621.2 91.5215 617.979C91.1144 617.018 90.7387 616.049 90.3402 615.09ZM817.067 648.923L833.403 647.911L842.71 661.932L858.429 661.865C859.291 660.158 860.142 658.443 860.984 656.724L822.132 638.987C820.488 642.325 818.799 645.637 817.067 648.923ZM854.409 598.361L849.525 596.812L843.773 585.72C840.236 596.603 836.253 607.366 831.764 617.978C831.756 617.996 831.748 618.013 831.739 618.032L870.565 635.806C875.833 623.452 880.541 610.806 884.691 597.908L848.17 586.33L854.409 598.361ZM868.711 640.047L850.851 639.459L862.961 652.646C864.945 648.483 866.853 644.279 868.711 640.047ZM846.123 639.323L829.3 638.778L857.855 651.851L846.123 639.323ZM842.932 635.834L830.014 621.98C828.09 626.397 826.11 630.78 824.038 635.11L842.932 635.834ZM864.741 636.69L836.325 623.679L847.684 636.036L864.741 636.69ZM720.071 787.185L709.67 783.113L710.989 794.205L722.05 799.129L720.071 787.185ZM748.463 742.801C747.528 743.755 746.61 744.721 745.665 745.666C743.402 747.931 741.113 750.163 738.805 752.366L753.97 758.268L748.463 742.801ZM751.811 739.373L781.765 769.807C784.879 766.575 787.953 763.305 790.968 759.979L759.217 731.448C756.789 734.119 754.316 736.758 751.811 739.373ZM761.768 728.573L793.518 757.104C796.51 753.746 799.454 750.345 802.344 746.896L768.918 720.329C766.574 723.106 764.192 725.854 761.768 728.573ZM811.672 666.388L818.168 677.835L831.315 678.457L811.672 666.388ZM728.917 816.656C731.731 814.534 734.52 812.379 737.28 810.193L727.125 805.696L728.917 816.656ZM708.36 778.654L723.639 784.425L726.371 801.032L740.722 807.419C749.202 800.567 757.423 793.41 765.372 785.964L735.349 755.587C726.657 763.695 717.662 771.397 708.36 778.654ZM800.568 677.362L814.633 678.008L807.684 665.723C805.373 669.642 803.013 673.529 800.568 677.362ZM784.378 714.814L772.336 717.285L771.953 717.767L804.851 743.913C808.279 739.747 811.614 735.503 814.893 731.213L801.724 720.745L784.378 714.814ZM115.649 693.534L131.833 691.001C129.247 687.289 126.716 683.537 124.258 679.74L115.649 693.534ZM786.354 698.137L804.027 710.523L804.014 710.45L807.32 689.306L832.259 706.839C832.971 705.766 833.681 704.691 834.384 703.611L798.02 681.268C794.277 686.989 790.389 692.612 786.354 698.137ZM426.742 861.798L432.202 879.03L439.979 862.727C435.552 862.495 431.142 862.175 426.742 861.798ZM569.891 74.7084L582.603 33.9455C572.724 31.1573 562.703 28.7078 552.558 26.5985L545.002 68.6296C553.359 70.3944 561.661 72.4084 569.891 74.7084ZM333.178 80.9381L322.602 71.607L320.319 85.5581C324.587 83.9498 328.869 82.3941 333.178 80.9381ZM325.547 55.1596L323.406 68.2182L333.313 76.923L325.547 55.1596ZM585.532 63.9014L574.493 76.0463C578.842 77.3187 583.173 78.6594 587.481 80.0813L585.532 63.9014ZM345.871 61.4605L343.341 77.6574C347.673 76.3224 352.031 75.087 356.403 73.9014L345.871 61.4605ZM317.629 82.5208L319.737 69.5276L309.878 60.8057L317.629 82.5208ZM648.797 58.5285C645.612 57.0469 642.405 55.6022 639.18 54.1946L639.986 65.2478L648.797 58.5285ZM617.976 91.5217C620.318 92.5123 622.636 93.5399 624.953 94.5718L622.855 78.3235L636.224 68.1058L635.111 52.4155C633.363 51.674 631.597 50.9666 629.838 50.2464L614.703 90.1852C615.793 90.635 616.889 91.062 617.976 91.5217ZM527.006 65.2678C531.476 65.9979 535.934 66.7864 540.372 67.6674L536.472 51.8775L527.006 65.2678ZM845.438 580.564L856.493 574.832L861.378 576.381L849.284 582.652L885.88 594.254C887.229 589.936 888.497 585.584 889.717 581.211L848.312 570.869C847.396 574.112 846.436 577.343 845.438 580.564ZM605.336 71.5274L612.001 86.3253L626.233 48.7733C622.031 47.0967 617.803 45.4755 613.54 43.9256L616.735 70.3674L605.336 71.5274ZM608.491 87.6532L599.802 68.0588L612.398 67.3529L609.883 42.6361C608.117 42.0113 606.358 41.3722 604.58 40.7688L591.947 81.5814C597.495 83.4886 603.015 85.4998 608.491 87.6532ZM587.408 57.3472L589.788 75.4172L600.925 39.5718C596.086 37.9748 591.21 36.459 586.3 35.0272L575.208 70.8869L587.408 57.3472ZM641.542 86.7423L627.99 95.9324C635.574 99.3839 643.023 103.072 650.346 106.969L641.324 94.4565L643.425 90.4656L661.227 88.6594L651.513 75.208L653.375 71.6711L670.847 69.5333C664.915 66.3608 658.906 63.3122 652.815 60.4044L640.336 69.9575L641.542 86.7423ZM691.867 132.438L684.415 118.951L686.981 115.244L697.327 134.059L720.567 100.49C714.32 96.0036 707.963 91.664 701.48 87.4995L679.345 124.002C683.573 126.734 687.746 129.548 691.867 132.438ZM636.576 72.8169L626.967 80.1767L628.264 91.2683L637.431 84.8906L636.576 72.8169ZM726.248 159.456L725.511 147L728.914 143.17L729.718 156.771L755.201 128.083C745.088 119.176 734.567 110.726 723.671 102.756L699.382 137.841C708.62 144.64 717.579 151.848 726.248 159.456ZM472.727 905.87L470.545 863.203C467.582 863.265 464.616 863.311 461.643 863.311C455.626 863.311 449.636 863.159 443.664 862.898L438.58 873.719L441.771 884.008L437.349 895.208L440.594 905.5C447.571 905.826 454.584 906.008 461.643 906.008C465.349 906.011 469.044 905.961 472.727 905.87ZM177.619 745.666C175.28 743.328 172.976 740.965 170.703 738.58L170.312 760.003L158.597 755.328L150.443 778.802C158.174 786.389 166.181 793.694 174.448 800.703L201.211 767.444C193.1 760.518 185.224 753.27 177.619 745.666ZM461.643 59.9745C476.885 59.9745 491.991 60.8442 506.943 62.5137L499.219 52.7001L499.825 47.6119L508.252 58.3178L512.788 20.2236C496.004 18.2993 478.944 17.276 461.644 17.276C450.592 17.276 439.64 17.6944 428.792 18.4872L433.009 60.9879C442.497 60.3233 452.043 59.9745 461.643 59.9745ZM665.222 88.2154L666.439 88.1029L674.794 72.2319L655.467 74.6259L665.222 88.2154ZM537.534 45.1439L542.101 62.7912L548.785 25.8428C543.79 24.8493 538.762 23.9484 533.709 23.1243L527.074 60.0727L537.534 45.1439ZM671.542 119.092L663.271 106.053L665.608 102.199L677.068 120.35L681.61 112.86L670.063 94.6543L672.249 91.247L683.709 109.398L698.227 85.4556C691.725 81.358 685.108 77.4283 678.385 73.6637L658.504 111.433C662.898 113.907 667.248 116.458 671.542 119.092ZM248.785 109.007L253.867 117.777C258.215 115.147 262.626 112.619 267.075 110.155L248.785 109.007ZM645.229 93.964L655.699 108.509L664.076 92.592L663.429 91.7309L645.229 93.964ZM378.16 68.658L360.118 57.0782L370.245 49.5575L354.542 30.3019C352.709 30.7545 350.875 31.2057 349.052 31.6825L360.951 72.683C366.655 71.2071 372.394 69.8763 378.16 68.658ZM189.89 130.269L192.539 143.232L204.896 147.84L189.89 130.269ZM221.941 139.267L211.808 138.728L195.289 127.895L184.832 114.039C183.916 114.771 183.003 115.508 182.092 116.246L209.815 148.708C213.804 145.487 217.838 142.326 221.941 139.267ZM212.884 135.476L225.161 136.096L225.652 135.726L200.359 102.211C195.995 105.389 191.671 108.621 187.43 111.953L197.576 125.399L212.884 135.476ZM246.224 122.528L234.303 104.567L234.288 104.639L223.491 123.123L206.667 97.6902C205.612 98.4303 204.553 99.1647 203.504 99.9148L229.207 133.974C234.781 130.01 240.458 126.197 246.224 122.528ZM244.767 73.7391C240.632 76.0562 236.527 78.4232 232.474 80.8669L237.223 89.0594L244.767 73.7391ZM192.235 158.654L189.579 145.762L177.263 141.122L192.235 158.654ZM438.511 884.348L436.475 878.146L433.763 883.917L435.955 890.85L438.511 884.348ZM746.154 158.483L742.751 162.313L730.298 163.05C735.525 167.764 740.655 172.613 745.663 177.62C746.395 178.352 747.102 179.101 747.827 179.837L746.964 169.637L755.426 151.788L767.729 139.515C764.559 136.502 761.334 133.55 758.076 130.632L732.626 159.281L746.154 158.483ZM188.847 142.142L186.126 125.938L179.607 118.247C175.322 121.771 171.119 125.39 166.97 129.069L173.503 136.72L188.847 142.142ZM233.935 97.0625L249.53 120.47C249.888 120.248 250.243 120.024 250.602 119.802L241.607 104.284L264.651 105.732L247.953 76.9202L237.754 97.6361L229.196 82.8724C222.625 86.9145 216.171 91.1288 209.831 95.4969L223.14 115.545L233.935 97.0625ZM206.189 151.634L192.995 146.684L195.826 160.528C199.24 157.508 202.684 154.53 206.189 151.634ZM395.7 65.3631L385.011 52.9492L390.555 37.0639L381.008 24.5931C379.132 24.9375 377.262 25.3019 375.394 25.6691L384.731 67.3244C388.375 66.6184 392.033 65.968 395.7 65.3631ZM522.721 50.3389L522.115 55.4272L512.336 63.1257C515.655 63.5413 518.964 63.9996 522.266 64.4978L529.909 22.4952C525.497 21.8149 521.06 21.21 516.606 20.6606L512.072 58.7221L522.721 50.3389ZM366.647 56.9259L380.356 65.6136L371.57 26.4149C367.125 27.3301 362.711 28.3321 358.316 29.3782L375.525 49.6842L366.647 56.9259ZM280.239 103.167L261.115 65.0087C257.088 67.0497 253.09 69.1391 249.133 71.2968L270.54 108.228C273.745 106.496 276.983 104.815 280.239 103.167ZM405.244 49.6998L398.982 64.8279C407.215 63.5427 415.5 62.5123 423.834 61.7394L409.367 56.2683L408.921 51.7807L428.99 59.418L424.959 18.7918C416.626 19.4735 408.36 20.393 400.164 21.5288L395.006 36.3494L405.244 49.6998ZM389.462 52.2347L396.645 60.783L400.791 50.4143L393.437 40.8043L389.462 52.2347ZM395.787 22.1422C392.299 22.6603 388.826 23.2225 385.366 23.8217L392.121 32.6105L395.787 22.1422ZM320.343 65.884L323.57 49.771L320.219 40.2663C314.949 42.034 309.733 43.9156 304.553 45.874L307.935 55.3503L320.343 65.884ZM305.308 91.5217C308.817 90.0372 312.346 88.6182 315.887 87.239L301.534 47.0226C288.92 51.8974 276.587 57.3358 264.557 63.2993L283.684 101.46C290.779 97.9521 297.979 94.6216 305.308 91.5217ZM338.769 79.1234L326.951 38.0816C325.716 38.4744 324.485 38.88 323.251 39.2828L337.605 79.5006C337.993 79.3739 338.38 79.2487 338.769 79.1234ZM343.833 54.9575L355.76 68.7334L345.34 32.6859C340.403 34.0209 335.493 35.42 330.626 36.9202L341.095 72.9734L343.833 54.9575ZM425.474 883.445L427.208 889.576L430.038 883.557L428.027 876.997L425.474 883.445ZM697.747 794.562L701.072 811.012L715.327 820.396L697.747 794.562ZM61.0845 570.702L65.3601 569.439L63.9283 577.984L76.0205 574.414C74.0179 567.562 72.1947 560.664 70.565 553.718L58.9112 565.197L42.6901 560.728L30.8739 571.096C32.1834 576.268 33.5938 581.398 35.084 586.496L59.5532 579.273L61.0845 570.702ZM53.7617 597.49L80.1979 587.845C79.1262 584.609 78.0971 581.359 77.1107 578.1L63.1498 582.222L61.6681 590.78L57.3428 592.057L58.8243 583.497L36.1814 590.181C39.2841 600.466 42.7498 610.589 46.5627 620.544L69.1801 612.336L53.7617 597.49ZM27.458 556.507C28.2067 559.95 28.9952 563.378 29.8221 566.791L38.1398 559.464L27.458 556.507ZM81.4376 591.535L61.1415 598.901L61.207 598.931L76.6269 613.779L47.932 624.145C48.4088 625.36 48.9126 626.563 49.4008 627.774L88.5625 610.732C86.0205 604.381 83.6437 597.981 81.4376 591.535ZM46.2297 557.602L57.9007 560.804L65.9508 553.065L55.3274 549.62L46.2297 557.602ZM69.8007 550.451C67.6672 540.999 65.8697 531.469 64.4322 521.863L41.2112 525.736L24.8733 543.735C25.3999 546.554 25.9352 549.37 26.5144 552.171L41.678 556.335L54.3154 545.225L69.8007 550.451ZM116.426 667.13L113.295 679.185L108.877 681.779L112.303 668.596L79.2243 688.029C81.5343 691.923 83.8899 695.786 86.3138 699.602L121.714 675.755C119.915 672.904 118.154 670.026 116.426 667.13ZM97.1976 661.902L101.615 659.306L113.659 662.436C108.995 654.358 104.616 646.105 100.511 637.69L79.4948 648.373L69.321 670.446C71.8872 675.258 74.5333 680.02 77.2688 684.723L110.313 665.308L97.1976 661.902ZM73.1498 629.982L85.2904 616.392L50.8569 631.334C52.8111 636.058 54.8264 640.749 56.9358 645.389L91.3663 630.397L73.1498 629.982ZM22.3342 528.883C22.8523 532.299 23.4188 535.7 24.0152 539.091L35.9053 526.62L22.3342 528.883ZM62.4565 657.034C63.9738 660.13 65.5237 663.207 67.1121 666.26L74.6997 650.812L62.4565 657.034ZM97.7612 631.92L58.5668 648.88C59.297 650.45 60.0157 652.027 60.7643 653.587L98.8386 634.232C98.4742 633.465 98.1213 632.69 97.7612 631.92ZM64.0037 404.539L55.3302 417.324L50.8611 416.715L62.9548 398.97L54.2713 397.786L42.1634 415.632L38.1655 414.983L50.2591 397.238L22.4779 393.447C21.3108 401.025 20.3317 408.664 19.5518 416.362L62.1478 419.566C62.673 414.538 63.2949 409.531 64.0037 404.539ZM72.468 361.744L61.7279 368.005L56.7735 366.7L68.5441 359.837L31.4091 350.056C28.0544 363.032 25.2947 376.246 23.11 389.653L65.407 395.424C67.2829 384.089 69.6215 372.854 72.468 361.744ZM91.3351 305.762L71.2781 297.76L71.308 297.827L72.9448 319.163L44.6314 307.82C43.0815 312.02 41.597 316.25 40.1708 320.51L80.7032 333.876C83.8856 324.402 87.4296 315.027 91.3351 305.762ZM62.6459 344.398L67.6017 345.703L73.8814 356.473C75.6022 350.118 77.4822 343.806 79.5217 337.534L38.9852 324.166C36.6083 331.479 34.4151 338.873 32.414 346.347L69.4734 356.108L62.6459 344.398ZM66.708 291.799L92.885 302.191C98.4614 289.307 104.677 276.781 111.516 264.637L90.9151 270.523L91.9628 257.949L67.1208 257.011C59.1988 272.252 52.1448 288.012 46.0005 304.222L68.3448 313.136L66.708 291.799ZM110.699 260.972L75.4725 241.665C73.2309 245.594 71.0603 249.568 68.9354 253.568L95.5479 254.071L95.1153 265.52L110.699 260.972ZM29.3084 420.333L19.2727 419.539C18.7561 425.043 18.3348 430.574 18.0189 436.135L28.063 436.89L42.7271 429.822L29.3084 420.333ZM45.9536 468.87L51.0718 468.642L60.2933 477.077C60.1652 473.695 60.0826 470.308 60.037 466.912L17.3314 466.177C17.3769 470.71 17.4908 475.224 17.6702 479.723L55.9508 478.016L45.9536 468.87ZM60.2064 448.521L45.2321 454.94L59.9787 462.111C59.9787 461.954 59.9729 461.799 59.9729 461.643C59.9729 457.256 60.0684 452.885 60.2064 448.521ZM17.8309 439.357C17.7682 440.624 17.7385 441.899 17.6858 443.168L60.38 443.812C60.3985 443.396 60.407 442.978 60.4255 442.562L17.8309 439.357ZM110.08 697.463L119.556 681.895L88.3917 702.841C91.1685 707.13 94.0251 711.36 96.9443 715.545L128.072 694.568L110.08 697.463ZM120.621 249.287L104.27 249.111L96.0035 234.452L80.3303 233.382C79.3511 235.013 78.3833 236.651 77.4254 238.295L114.861 258.813C116.737 255.609 118.658 252.435 120.621 249.287ZM60.5053 482.485L52.0979 491.678L46.9783 491.906L56.1729 481.853L17.8168 483.561C18.4985 497.584 19.8506 511.425 21.8019 525.076L63.9097 518.055C62.263 506.298 61.1116 494.439 60.5053 482.485ZM421.641 883.18L426.255 871.428L423.175 861.491C419.315 861.125 415.463 860.722 411.625 860.247L409.745 874.664L416.97 879.482L416.388 883.953L409.163 879.136L406.109 902.564C410.804 903.149 415.525 903.64 420.265 904.077L425.046 894.101L421.641 883.18ZM424.038 904.413C428.274 904.767 432.524 905.072 436.793 905.308L431.546 888.49L424.038 904.413ZM398.379 871.89L398.955 867.471L406.186 872.238L407.817 859.733C400.813 858.798 393.849 857.678 386.921 856.377L378.837 898.277C386.588 899.737 394.408 901.004 402.297 902.057L405.595 876.76L398.379 871.89ZM758.864 763.013L741.805 756.59L768.191 783.341C771.887 779.817 775.501 776.21 779.075 772.562L752.679 745.866L758.864 763.013ZM355.104 849.037L349.241 871.859L359.096 894.096C364.382 895.346 369.705 896.496 375.064 897.554L383.146 855.662C373.718 853.796 364.37 851.582 355.104 849.037ZM344.488 890.37C347.807 891.276 351.14 892.144 354.489 892.974L347.904 877.068L344.488 890.37ZM750.332 170.258L751.403 182.504L751.838 182.939L781.569 153.281C777.823 149.397 774.007 145.579 770.123 141.833L758.212 153.715L750.332 170.258ZM55.0868 447.618L17.5405 447.013C17.384 451.873 17.2744 456.744 17.2744 461.643C17.2744 461.872 17.2831 462.098 17.2831 462.327L54.8406 462.885L38.4159 454.986L55.0868 447.618ZM166.756 754.522L166.961 738.294L138.209 766.33C141.318 769.626 144.462 772.891 147.669 776.092L155.937 750.762L166.756 754.522ZM877.303 458.867L865.642 470.158L905.893 470.806C905.954 467.757 906.009 464.706 906.009 461.643C906.009 460.181 905.968 458.728 905.954 457.269L882.262 469.198L877.303 458.867ZM339.732 844.474L326.597 885.09C331.292 886.587 336.015 888.023 340.777 889.367L351.401 848.01C347.494 846.897 343.607 845.709 339.732 844.474ZM177.619 177.62C182.403 172.837 187.294 168.191 192.279 163.677L164.555 131.21C156.899 138.097 149.489 145.251 142.33 152.649L173.804 181.526C175.074 180.224 176.331 178.91 177.619 177.62ZM124.139 704.481L128.211 701.371L140.54 703.022C138.524 700.348 136.54 697.653 134.594 694.931L99.1376 718.708C101.736 722.364 104.404 725.968 107.109 729.541L137.569 706.277L124.139 704.481ZM307.898 832.823L300.002 852.939L300.068 852.909L321.396 851.155L310.211 879.525C314.424 881.052 318.671 882.503 322.942 883.904L336.075 843.292C326.58 840.165 317.186 836.676 307.898 832.823ZM155.887 722.13L156.018 732.333L146.3 749.529L133.147 760.89C133.942 761.761 134.757 762.613 135.557 763.479L166.129 733.667C162.636 729.878 159.221 726.032 155.887 722.13ZM199.199 820.229C202.919 822.959 206.684 825.634 210.494 828.248L214.407 810.799L199.199 820.229ZM143.86 707.356L142.206 719.696L138.135 722.807L139.944 709.304L109.451 732.594C112.199 736.162 114.989 739.696 117.842 743.177L150.151 715.266C148.016 712.653 145.922 710.016 143.86 707.356ZM152.701 731.473L152.509 719.183L152.108 718.718L120.327 746.172C123.786 750.315 127.319 754.394 130.924 758.409L143.655 747.41L152.701 731.473ZM208.288 773.351L214.765 787.374L211.939 790.887L202.976 771.377L197.484 778.203L206.527 797.777L203.91 800.866L194.947 781.357L177.383 803.186C183.311 808.124 189.358 812.925 195.541 817.555L220.209 782.706C216.179 779.666 212.208 776.546 208.288 773.351ZM872.23 564.987L854.323 568.365L890.72 577.495C892.045 572.576 893.312 567.633 894.471 562.649L858.037 553.557L872.23 564.987ZM239.007 796.044L214.31 830.856C218.027 833.351 221.796 835.779 225.594 838.164L248.126 801.942C245.06 800.016 242.018 798.053 239.007 796.044ZM281.063 820.528L272.529 836.313L261.721 815.91L245.882 845.201L268.873 843.073L260.749 858.096C264.755 860.13 268.804 862.092 272.879 864.007L290.861 825.291C287.572 823.744 284.304 822.161 281.063 820.528ZM244.825 849.579C248.955 851.893 253.123 854.152 257.334 856.335L261.839 848.003L244.825 849.579ZM251.388 803.973L228.853 840.198C232.689 842.562 236.551 844.891 240.464 847.141L260.774 809.58C257.617 807.757 254.492 805.883 251.388 803.973ZM294.066 857.544L304.307 831.327C300.961 829.901 297.643 828.425 294.347 826.913L276.362 865.632C286.253 870.174 296.336 874.367 306.601 878.188L315.396 855.787L294.066 857.544ZM871.695 397.155L867.306 397.936L869.673 389.603L857.289 391.809C858.504 398.752 859.523 405.739 860.372 412.759L902.756 407.82C901.802 399.923 900.652 392.088 899.29 384.324L874.16 388.802L871.695 397.155ZM60.6889 437.821C60.9551 433.265 61.2909 428.722 61.7079 424.193L48.8742 430.079L60.6889 437.821ZM35.0371 420.712L46.1046 427.968L58.0828 422.445L35.0371 420.712ZM33.8387 437.324L56.8333 439.054L45.8127 431.852L33.8387 437.324ZM877.03 478.299L891.302 487.219L905.577 480.664C905.661 478.678 905.746 476.694 905.803 474.703L863.104 474.014C862.985 478.015 862.798 482.001 862.562 485.981L877.03 478.299ZM863.311 461.643C863.311 463.521 863.267 465.395 863.242 467.269L878.688 452.484L883.625 464.094L905.905 453.398C905.649 439.307 904.733 425.377 903.193 411.637L860.799 416.577C862.451 431.452 863.311 446.48 863.311 461.643ZM857.502 310.83L869.98 299.182L840.729 310.191L857.502 310.83ZM904.727 495.638C904.993 492.128 905.212 488.607 905.397 485.074L895.303 489.733L904.727 495.638ZM845.021 341.433L885.827 328.874C884.472 324.539 883.032 320.241 881.549 315.964L841.598 331.048C842.786 334.496 843.931 337.956 845.021 341.433ZM856.584 388.033L870.915 385.48L873.332 377.137L877.771 376.345L875.355 384.689L898.601 380.545C897.743 375.893 896.802 371.271 895.801 366.671L854.316 376.712C855.125 380.474 855.884 384.247 856.584 388.033ZM894.984 362.915C894.22 359.55 893.415 356.203 892.575 352.867L881.63 366.147L894.984 362.915ZM82.6218 229.597L93.6948 230.333L88.2536 220.658C86.3407 223.614 84.4649 226.593 82.6218 229.597ZM854.01 314.061L835.097 313.473C836.876 317.949 838.558 322.454 840.17 326.977L854.01 314.061ZM871.772 536.835L884.273 532.71L861.61 528.47L871.772 536.835ZM876.744 482.8L866.815 487.919L876.014 494.256L887.016 489.205L876.744 482.8ZM852.858 553.14C851.829 557.554 850.713 561.946 849.535 566.321L865.585 563.48L852.858 553.14ZM881.26 549.087L871.056 540.662L858.546 544.837L881.26 549.087ZM853.911 548.459L895.306 558.89C895.588 557.631 895.861 556.368 896.132 555.103L854.172 547.249C854.084 547.653 854 548.058 853.911 548.459ZM857.647 529.276C856.887 533.765 856.062 538.241 855.15 542.699L868.533 538.262L857.647 529.276ZM875.727 498.756L862.359 489.307C862.108 493.03 861.813 496.748 861.46 500.453L879.266 502.675L864.177 520.154L897.225 524.276L886.893 503.624L903.836 505.738C904.022 503.84 904.179 501.933 904.343 500.029L891.018 491.717L875.727 498.756ZM903.432 509.562L894.042 508.391L901.681 523.661C902.334 518.981 902.925 514.284 903.432 509.562ZM858.412 524.586L900.373 532.441C900.577 531.166 900.794 529.898 900.988 528.62L858.615 523.334C858.551 523.752 858.476 524.168 858.412 524.586ZM886.909 550.094L896.811 551.986C897.929 546.57 898.924 541.11 899.844 535.625L889.963 533.776L874.614 539.192L886.909 550.094ZM859.19 519.408L871.164 505.537L861.072 504.277C860.54 509.34 859.912 514.384 859.19 519.408ZM853.509 372.955L876.401 367.414L891.395 348.282C890.004 343.001 888.517 337.757 886.939 332.555L846.149 345.108C848.938 354.304 851.398 363.588 853.509 372.955ZM150.994 206.973C153.345 204.112 155.739 201.28 158.174 198.479L126.748 169.585C125.502 171.011 124.276 172.455 123.047 173.897L129.072 188.402L145.602 191.547L150.994 206.973ZM143.8 158.252L151.089 173.795L166.924 179.513L143.8 158.252ZM139.185 155.91C136.006 159.261 132.892 162.675 129.818 166.125L146.633 172.205L139.185 155.91ZM155.576 191.704L148.59 176.439L132.565 170.548L155.576 191.704ZM170.781 184.624L153.047 178.102L161.043 195.246C164.227 191.661 167.459 188.109 170.781 184.624ZM136.479 225.767L122.831 233.003L119.169 230.373L138.157 220.356L104.993 196.54C100.034 203.203 95.2719 210.022 90.6832 216.964L98.4088 230.636L115.198 231.769L122.401 246.426C126.87 239.397 131.573 232.514 136.479 225.767ZM776.581 212.303L778.097 199.938L782.134 196.782L780.476 210.305L810.72 186.665C802.364 176.072 793.531 165.873 784.263 156.089L754.021 186.258C761.94 194.652 769.462 203.336 776.581 212.303ZM106.675 245.296L117.841 245.551L112.795 235.587L100.719 234.758L106.675 245.296ZM148.888 209.589L132.669 207.445L126.227 191.9L110.786 188.948C109.619 190.45 108.463 191.961 107.314 193.479L141.984 218.378C144.243 215.419 146.544 212.488 148.888 209.589ZM875.893 314.748L858.735 314.253L846.497 325.812L875.893 314.748ZM135.514 203.948L146.569 205.544L142.757 195.046L130.868 192.77L135.514 203.948ZM113.526 185.468L124.431 187.531L120.192 177.273C117.939 179.979 115.716 182.71 113.526 185.468ZM827.663 295.958L866.634 278.509C864.765 274.381 862.814 270.299 860.823 266.24L823.003 286.059C824.596 289.337 826.156 292.632 827.663 295.958ZM827.22 280.274L855.058 265.722L837.966 267.313L827.22 280.274ZM796.335 214.95L792.299 218.106L779.93 216.59C783.827 221.637 787.598 226.769 791.243 231.987L803.222 223.738L801.97 215.144L805.683 212.588L806.936 221.182L826.375 207.796C822.091 201.651 817.659 195.618 813.077 189.706L782.885 213.304L796.335 214.95ZM814.429 269.408C816.728 273.622 818.937 277.89 821.088 282.194L833.252 267.696L814.429 269.408ZM831.764 305.309C832.349 306.693 832.895 308.087 833.464 309.475L873.44 294.429C871.747 290.264 869.994 286.127 868.18 282.026L829.212 299.474C830.07 301.415 830.935 303.352 831.764 305.309ZM880.041 311.685C878.48 307.33 876.877 302.995 875.185 298.704L862.162 310.994L880.041 311.685ZM811.937 248.112L810.049 260.256L810.366 260.783L846.332 239.096C843.624 234.424 840.821 229.812 837.948 225.249L823.547 233.933L811.937 248.112ZM819.597 265.467L836.327 264.067L847.299 250.988L819.597 265.467ZM808.763 234.042L805.093 236.57L803.797 228.005L793.427 235.145C798.258 242.203 802.854 249.415 807.219 256.771L808.815 246.702L821.3 231.398L836.183 222.424C833.706 218.554 831.154 214.738 828.563 210.951L807.552 225.42L808.763 234.042ZM858.803 262.176C856.725 258.046 854.607 253.94 852.404 249.883L840.971 263.661L858.803 262.176ZM812.322 265.628L850.152 245.853C849.526 244.726 848.903 243.598 848.265 242.477L811.705 264.521C811.913 264.889 812.115 265.259 812.322 265.628Z" fill="#727272"/>
<path d="M0.334574 461.643C0.334579 338.423 48.3192 222.579 135.45 135.448C222.581 48.3178 338.423 0.334569 461.643 0.334575C584.862 0.33458 700.706 48.3192 787.837 135.45C874.967 222.581 922.951 338.423 922.951 461.643C922.951 584.862 874.966 700.706 787.835 787.837C700.705 874.968 584.862 922.951 461.643 922.951C338.423 922.951 222.578 874.966 135.448 787.835C48.3192 700.708 0.334568 584.862 0.334574 461.643ZM918.681 461.643C918.681 209.632 713.654 4.60444 461.643 4.60443C209.631 4.60442 4.60444 209.631 4.60443 461.643C4.60442 713.654 209.631 918.681 461.643 918.681C713.654 918.681 918.681 713.654 918.681 461.643Z" fill="#727272"/>
<path d="M70.9509 461.643C70.9509 357.286 111.59 259.175 185.382 185.382C259.175 111.59 357.286 70.9509 461.643 70.9509C565.999 70.9509 664.111 111.59 737.904 185.382C811.695 259.175 852.334 357.286 852.334 461.643C852.334 565.999 811.695 664.111 737.904 737.904C664.111 811.695 565.999 852.334 461.643 852.334C357.286 852.334 259.175 811.695 185.382 737.904C111.589 664.112 70.9509 565.999 70.9509 461.643ZM849.488 461.643C849.488 247.784 675.501 73.7975 461.643 73.7975C247.784 73.7975 73.7975 247.784 73.7975 461.643C73.7975 675.501 247.784 849.488 461.643 849.488C675.501 849.488 849.488 675.501 849.488 461.643Z" fill="#727272"/>
</svg>
